<?xml version="1.0" encoding="utf-8"?>
<!-- Generator: Adobe Illustrator 23.0.1, SVG Export Plug-In . SVG Version: 6.00 Build 0)  -->
<svg version="1.1" id="Layer_1" xmlns="http://www.w3.org/2000/svg" xmlns:xlink="http://www.w3.org/1999/xlink" x="0px" y="0px"
	 viewBox="0 0 128 128" style="enable-background:new 0 0 128 128;" xml:space="preserve">
<style type="text/css">
	.st0{fill:#FFFFFF;}
</style>
<g>
	<path class="st0" d="M3.49,128c-2.48-0.94-3.55-2.72-3.46-5.2c0.08-2.12-0.21-4.25,0.17-6.36c0.55-3.08,2.39-5.22,5.41-6.43
		c2.83-1.13,5.66-2.26,8.52-3.32c0.88-0.33,1.1-0.83,1.18-1.68c0.25-2.72-0.2-5.06-2.47-7.07c-1.65-1.47-2.61-3.53-3.41-5.58
		c-0.22-0.56-0.5-1.04-1.1-1.33c-0.65-0.32-1.01-0.92-1.29-1.54c-1.99-4.32-2.61-8.79-1.45-13.42c0.03-0.12,0.08-0.24,0.12-0.36
		c0.45-1.4,1.46-2.04,2.71-1.71c1.16,0.31,1.73,1.32,1.36,2.72c-0.47,1.76-0.51,3.54-0.42,5.34c0.05,1.04,0.21,2.06,0.56,3.02
		c0.25,0.11,0.38-0.02,0.5-0.13c2.4-2.27,5.25-3.87,8.41-5.01c1.8-0.65,3.32-1.67,4.58-3.05c0.55-0.6,1.01-1.26,1.36-1.98
		c1.66-3.39,0.21-5.56-3.72-5.64c-1.89-0.04-3.65,0.38-5.34,1.12c-0.4,0.17-0.78,0.39-1.19,0.53c-1.11,0.36-2.01,0.05-2.59-0.9
		c-0.6-1-0.32-1.99,0.65-2.52c4.17-2.27,8.54-3.26,13.17-1.24c1.05,0.46,1.96,1.13,2.59,2.07c0.42,0.63,0.92,0.93,1.73,0.85
		c7.38-0.7,11.8,5.75,11.23,11.93c-0.26,2.74-1.02,5.31-2.29,7.77c-0.44,0.86-0.9,1.72-1.88,2.17c-0.45,0.2-0.51,0.65-0.66,1.03
		c-1.21,2.95-2.89,5.61-5.29,7.82c-0.55,0.51-0.78,1.06-0.74,1.77c0.09,1.45-0.51,3.12,0.24,4.3c0.76,1.2,2.71,1.2,4.04,1.9
		c2.09,1.11,3.74,1.22,5.87-0.48c2.42-1.93,5.78-2.51,8.71-3.73c1.48-0.62,2.98-1.23,4.5-1.75c0.99-0.34,1.39-0.9,1.29-1.88
		c-0.06-0.54-0.07-1.09,0-1.62c0.31-2.52-0.05-4.79-2.44-6.37c-0.17-0.11-0.28-0.32-0.41-0.48c-0.99-1.27-0.97-2.44,0.06-3.21
		c1.02-0.77,2.23-0.51,3.28,0.74c2.86,3.41,6.41,5.15,11.06,4.04c2.68-0.64,4.62-2.34,6.21-4.39c2.95-3.82,4.11-8.23,4.5-12.87
		c0.07-0.9-0.35-1.61-1.15-2.12c-1.43-0.91-2.76-1.93-3.59-3.41c-0.24-0.43-0.63-0.53-1.1-0.52c-1.3,0.03-2.53-0.28-3.66-0.87
		c-0.71-0.37-1.09-0.13-1.55,0.37c-2.33,2.55-5.24,3.99-8.85,4c-0.39,0-0.82-0.04-1.1,0.29c-1.09,1.27-2.61,1.94-4.1,2.64
		c-0.82,0.38-1.2,0.93-1.05,1.8c0.2,1.11,0.41,2.21,0.58,3.32c0.21,1.38-0.41,2.34-1.62,2.59c-1.09,0.22-2.21-0.47-2.45-1.75
		c-0.37-2.01-1.15-3.62-2.89-5.03c-2.56-2.08-2.67-5.21-2.83-8.19c-0.04-0.77-0.23-1.44-0.63-2.12c-3.17-5.34-0.63-11.74,5.47-13.76
		c0.81-0.27,1.3-0.69,1.7-1.41c1.98-3.53,6.4-4.87,10.16-3.06c0.9,0.43,1.64,0.5,2.6,0.17c3.51-1.21,7.36-0.11,9.66,2.73
		c0.63,0.78,1.15,1.09,2.26,0.82c4.87-1.18,9.32,2.19,9.36,6.99c0.01,0.78,0.22,1.28,0.92,1.76c2.75,1.85,3.83,4.68,2.91,7.8
		c-0.84,2.87-1.98,5.62-4.38,7.71c-0.43,0.38-0.51,0.84-0.58,1.34c-0.5,3.49-1.4,6.86-3.1,10.02c-1.19,2.2-2.65,4.22-4.6,5.88
		c-0.47,0.4-0.66,0.84-0.65,1.42c0.02,1.67,0.04,3.33-0.01,5c-0.02,0.78,0.26,1.21,1.04,1.5c2.73,1.02,5.45,2.08,8.15,3.19
		c1.04,0.43,1.29,0.17,1.29-0.83c-0.03-5.67-0.03-11.33-0.01-17c0.02-3.89,0.79-7.62,2.89-11.02c0.38-0.61,0.76-1.23,1.24-1.76
		c0.72-0.8,1.65-0.94,2.61-0.42c0.99,0.53,1.16,1.4,0.89,2.38c-0.05,0.2-0.16,0.39-0.29,0.56c-2.47,3.45-3.16,7.31-3.09,11.41
		c0.1,5.96,0.02,11.92,0.03,17.87c0,1.98,1.85,3.16,3.75,2.41c1.7-0.67,3.4-1.35,5.11-2c0.7-0.27,0.96-0.69,1-1.42
		c0.08-1.51-0.26-2.72-1.38-3.96c-3.17-3.5-4.92-7.64-5.38-12.26c-0.18-1.74,0.58-2.73,2.41-3.13c1.07-0.24,2.14-0.44,3.21-0.66
		c5.68-1.16,9.44-4.34,11.17-9.64c0.06-0.2,0.13-0.4,0.2-0.6c0.55-1.5,1.66-2.01,3.19-1.35c3.37,1.45,5.67,3.91,6.96,7.15
		c2.69,6.79,1.39,13.09-2.77,18.99c-0.53,0.76-1.13,1.49-1.78,2.16c-0.51,0.53-0.75,1.07-0.74,1.79c0.06,3.07-0.34,2.35,2.44,3.48
		c1.98,0.8,3.98,1.53,5.95,2.35c0.94,0.39,1.34,0.31,1.34-0.78c-0.03-7.75,0.12-15.5-0.07-23.25
		c-0.29-11.35-12.87-18.89-23.89-14.45c-0.44,0.18-0.88,0.39-1.33,0.54c-1.19,0.41-2.3,0.02-2.78-0.95c-0.48-0.97-0.11-2.09,1-2.66
		c1.99-1.02,4.12-1.66,6.34-1.98c11.48-1.67,22.04,5.24,24.55,16.04c0.32,1.39,0.45,2.79,0.45,4.21c-0.01,8.67,0,17.33-0.01,26
		c0,0.76,0.1,1.47,0.46,2.17c0.57,1.14,0.82,2.37,0.82,3.64c0,1.58-0.03,3.17,0.01,4.75c0.05,2.47-0.99,4.26-3.47,5.2
		C84.18,128,43.84,128,3.49,128z M55.23,51.87c-1.42-0.01-2.92,0.86-3.18,2.19c-0.36,1.84-1.46,2.48-3.29,2.78
		c-3.85,0.63-5.9,4.77-3.81,7.9c1.02,1.53,1.29,2.99,1.28,4.68c-0.01,1.45,0.16,2.91,0.93,4.23c0.35,0.61,0.7,0.77,1.29,0.21
		c0.88-0.84,2.03-1.3,3.12-1.83c0.67-0.33,1.32-0.67,1.59-1.41c0.43-1.18,1.36-1.52,2.59-1.45c0.78,0.04,1.54,0.27,2.35,0.15
		c2.94-0.43,4.94-1.95,6.12-4.53c0.89-1.94,2.51-2.14,3.97-0.56c1.2,1.3,2.62,1.83,4.45,1.5c1.9-0.35,2.5,0.01,3.19,1.76
		c0.4,1.01,1.04,1.81,1.96,2.44c0.74,0.51,1.49,1.04,2.13,1.65c0.5,0.47,0.68,0.32,0.93-0.16c0.53-1.05,0.98-2.14,1.32-3.26
		c0.63-2.12-0.22-3.59-2.43-4.21c-1.89-0.53-2.38-1.42-1.74-3.17c0.62-1.72,0.19-3.21-1.19-4.09c-1.41-0.89-2.92-0.71-4.42,0.55
		c-1.64,1.37-3.23,0.91-3.84-1.12c-1.06-3.57-4.14-4.71-7.4-2.75c-1.43,0.86-2.14,0.81-3.36-0.34
		C57.06,52.33,56.22,51.98,55.23,51.87z M115.21,88.22c-0.13-3.33-0.72-6.2-2.73-8.64c-1.12-1.36-1.2-1.34-1.98,0.14
		c-0.23,0.45-0.49,0.89-0.76,1.31c-3.03,4.64-7.48,7.26-13.07,8.22c-1.06,0.18-1.47,0.6-1.21,1.6c1.05,3.99,3.04,7.45,6.4,10.1
		c2.2,1.73,4.22,1.8,6.43,0.07C112.61,97.63,114.79,93.17,115.21,88.22z M22.91,124.16c0.44,0,0.89-0.06,1.31,0.01
		c2.29,0.38,3.82-0.54,5.19-2.26c1.84-2.32,3.97-4.44,5.96-6.66c1.24-1.39,1.03-2.32-0.67-3c-1.54-0.61-3.09-1.17-4.61-1.83
		c-0.84-0.37-1.51-0.32-2.32,0.14c-3.3,1.89-6.65,1.83-9.94-0.06c-0.62-0.36-1.15-0.49-1.83-0.21c-1.77,0.72-3.55,1.43-5.35,2.08
		c-0.89,0.33-0.88,0.67-0.34,1.34c1.89,2.35,3.87,4.65,5.55,7.13C17.57,123.36,19.48,125.11,22.91,124.16z M22.93,99.73
		c1.32,0.06,2.43-0.54,3.47-1.24c2.77-1.86,4.58-4.44,5.88-7.36c1.04-2.34,0.99-2.4-1.06-4.07c-2.12-1.73-4.73-2.89-6.44-5.09
		c-0.32-0.42-0.69-0.21-1.03,0.02c-1.44,0.99-3.08,1.56-4.7,2.21c-2.16,0.87-4.05,2.12-5.76,3.66c-0.56,0.5-0.66,1-0.44,1.67
		c1.13,3.42,3.07,6.34,6.01,8.61C20.03,99.04,21.29,99.79,22.93,99.73z M63.95,124.16c0.7,0,1.41-0.05,2.1,0.01
		c0.95,0.09,1.3-0.3,1.43-1.16c0.89-5.82,3.12-11.14,6.65-15.97c0.15-0.21,0.48-0.4,0.18-0.75c-0.62-0.71-2.98-1.03-3.82-0.51
		c-4.01,2.49-8.15,2.71-12.22,0.31c-1.32-0.78-2.27-0.79-3.57-0.21c-0.98,0.43-1.13,0.73-0.5,1.59c3.04,4.2,5.04,8.82,6.05,13.83
		C60.83,124.17,60.85,124.16,63.95,124.16z M79.74,124.16c2.28,0,4.56-0.04,6.84,0.02c1.05,0.03,1.38-0.34,1.36-1.31
		c-0.05-2.46-0.04-4.92-0.01-7.37c0.03-2.6-1.26-4.35-3.72-5.36c-1.45-0.6-2.94-1.1-4.36-1.74c-0.91-0.42-1.41-0.17-1.96,0.55
		c-3.18,4.2-5.17,8.86-6.13,13.94c-0.17,0.9,0.08,1.31,1.13,1.29C75.18,124.13,77.46,124.16,79.74,124.16z M48.22,124.16
		c2.32,0,4.65-0.03,6.97,0.01c0.99,0.02,1.22-0.4,1.07-1.23c-0.94-5.18-2.98-9.91-6.22-14.17c-0.43-0.56-0.85-0.74-1.55-0.45
		c-1.65,0.68-3.35,1.26-4.97,1.99c-2.12,0.95-3.29,2.62-3.35,4.85c-0.08,2.62,0.01,5.25-0.04,7.87c-0.01,0.89,0.36,1.15,1.25,1.14
		C43.66,124.13,45.94,124.16,48.22,124.16z M116.46,124.16c1.89,0,3.77-0.05,5.65,0.02c1.22,0.04,1.63-0.42,1.58-1.55
		c-0.07-1.54-0.03-3.08-0.02-4.62c0.01-2.06-0.95-3.5-2.96-4.29c-2.27-0.89-4.55-1.75-6.8-2.68c-0.92-0.38-1.18-0.22-1.24,0.75
		c-0.24,4-0.69,7.97-2.76,11.59c-0.38,0.66,0.01,0.79,0.62,0.78C112.51,124.15,114.49,124.16,116.46,124.16z M101.9,110.29
		c0.04,1.79,0.04,3.57,0.33,5.35c0.38,2.28,0.98,4.47,2.24,6.47c0.51,0.8,0.88,0.78,1.35-0.02c0.5-0.84,0.94-1.69,1.27-2.6
		c1.56-4.26,1.31-8.69,1.33-13.09c0-0.67-0.37-0.62-0.86-0.46c-1.54,0.49-3.09,0.56-4.64,0.05c-0.84-0.27-1.01,0.16-1.01,0.8
		C101.9,107.96,101.9,109.12,101.9,110.29z M92.24,118.57c0,1.54,0.07,2.79-0.02,4.04c-0.08,1.16,0.27,1.65,1.59,1.58
		c1.83-0.1,3.68-0.06,5.52-0.01c1.07,0.03,1.49-0.12,0.84-1.2c-0.47-0.79-0.8-1.66-1.11-2.53c-0.99-2.83-1.36-5.76-1.42-8.72
		c-0.02-0.87-0.23-1.14-1.14-0.75c-1.19,0.52-2.42,0.97-3.64,1.44c-0.52,0.2-0.97,0.44-0.83,1.08
		C92.43,115.28,92.14,117.08,92.24,118.57z M37.09,80.22c0.03-1.01-0.17-1.99-0.52-2.93c-0.87-2.41-2.51-3.94-5.31-4.14
		c-0.99-0.07-1.7,0.17-1.88,1.24c-0.18,1.08-0.58,2.12-1.23,3c-0.74,0.99-0.51,1.69,0.31,2.48c2.06,2,4.73,3.27,6.83,5.22
		c0.52,0.48,0.76,0.07,0.91-0.36C36.73,83.27,37.06,81.77,37.09,80.22z M59.35,99.41c0,2.88,0.9,3.89,3.81,4.23
		c1.19,0.14,2.36,0.01,3.48-0.43c1.9-0.74,2.1-1.02,2.1-2.96c0-0.79-0.03-1.58,0-2.37c0.03-0.8-0.28-1.02-1.11-0.81
		c-1.92,0.5-3.86,0.64-5.85,0.29C59.35,96.92,59.35,96.96,59.35,99.41z M8.9,124.16c0.96,0,1.93,0.02,2.89-0.01
		c0.37-0.01,0.88,0.21,1.07-0.21c0.14-0.32-0.26-0.58-0.47-0.84c-1.83-2.34-3.64-4.69-5.5-7c-0.37-0.46-0.59-1.36-1.3-1.21
		c-0.66,0.15-0.85,0.99-1.06,1.63c-0.1,0.31-0.17,0.65-0.18,0.98c-0.02,1.83,0,3.66-0.02,5.49c-0.01,0.86,0.41,1.2,1.28,1.18
		C6.71,124.14,7.81,124.16,8.9,124.16z M26.12,105.06c-0.33-0.44,0.68-1.77-0.91-1.51c-1.62,0.27-3.19,0.4-4.78-0.08
		c-0.38-0.11-0.65-0.08-0.81,0.35c-0.74,2.07,0.22,3.64,2.49,4.03C24.5,108.28,26.12,107.19,26.12,105.06z"/>
	<path class="st0" d="M83.75,0c3.38,1.14,5.9,3.12,6.73,6.58c0.27,1.12,0.32,2.31,0.34,3.47c0.04,3.08,0.01,6.17,0.02,9.25
		c0,2.14,0,2.14,2.19,2.14c8.29,0,16.58,0,24.86,0c5.04,0,8.02,2.83,8.02,7.63c0.01,5.33,0.01,10.67,0,16
		c-0.01,4.62-3.03,7.48-7.88,7.49c-1.53,0-3.07,0.04-4.6-0.01c-0.96-0.03-1.67,0.27-2.32,0.92c-1.09,1.09-2.22,2.14-3.36,3.17
		c-1.75,1.56-3.63,1.56-5.36-0.01c-1.11-1.01-2.22-2.02-3.25-3.1c-0.71-0.75-1.51-1.02-2.55-0.98c-1.71,0.06-3.42,0.04-5.13,0.01
		c-4.05-0.08-7.14-2.99-7.23-6.84c-0.04-1.87-0.01-3.75-0.02-5.62c0-0.52,0.01-1.06-0.81-0.95c-3.06,0.39-6.13,0.16-9.19,0.15
		c-1.46,0-2.5,0.46-3.4,1.51c-1.08,1.26-2.23,2.46-3.4,3.65c-2.04,2.06-4.5,2.06-6.51,0c-1.31-1.35-2.57-2.74-3.83-4.12
		c-0.65-0.71-1.43-1.02-2.43-1.01c-2.89,0.03-5.79,0.04-8.68-0.02c-2.16-0.05-2.12-0.11-2.16,2c-0.04,1.91,0.21,3.83-0.2,5.73
		c-0.68,3.17-3.47,5.43-6.88,5.52c-1.88,0.05-3.77,0.03-5.66,0.01c-0.76-0.01-1.34,0.21-1.87,0.73c-1.09,1.08-2.23,2.12-3.36,3.17
		c-1.96,1.8-3.82,1.81-5.74,0.02c-1.13-1.05-2.26-2.1-3.35-3.18c-0.53-0.52-1.11-0.74-1.86-0.73c-1.84,0.03-3.68,0.03-5.53,0
		c-4.13-0.07-7.22-3.02-7.24-6.93c-0.03-5.67-0.02-11.33,0-17c0.01-4.22,3.08-7.16,7.53-7.17c8.64-0.02,17.28-0.01,25.92-0.01
		c1.87,0,1.88,0,1.88-1.81c0-3.5-0.02-7,0.01-10.5c0.04-4.37,2.25-7.35,6.51-8.89c0.2-0.07,0.4-0.17,0.6-0.25c4.21,0,8.42,0,12.63,0
		c0.98,0.62,1.45,1.48,1.05,2.57c-0.4,1.08-1.36,1.28-2.45,1.27c-2.89-0.02-5.79-0.04-8.68,0c-3.3,0.05-5.35,2-5.36,5.09
		c-0.02,7.12-0.02,14.24,0,21.36c0.01,3.02,1.97,4.9,5.16,4.94c2.54,0.03,5.08,0.01,7.63,0.01c2.27,0,4.19,0.72,5.69,2.39
		c1.02,1.14,2.16,2.2,3.11,3.39c0.67,0.83,1.03,0.7,1.65-0.02c0.96-1.13,2.07-2.15,3.06-3.27c1.59-1.81,3.63-2.52,6.04-2.49
		c2.28,0.02,4.56,0.01,6.84,0c3.75-0.02,5.65-1.83,5.65-5.4c0.01-6.83,0.01-13.66,0-20.49c0-3.64-2-5.51-5.87-5.52
		c-4.82-0.01-9.64-0.01-14.46,0.01c-1.12,0-2.13-0.12-2.63-1.23C63.07,1.49,63.73,0.71,64.54,0C70.94,0,77.34,0,83.75,0z
		 M6.39,36.96C6.39,36.96,6.39,36.96,6.39,36.96c0.01,2.87-0.02,5.75,0.02,8.62c0.03,1.86,1.08,2.85,3.02,2.88
		c1.88,0.04,3.77,0.01,5.65,0.02c1.7,0.01,3.17,0.51,4.36,1.72c0.81,0.82,1.72,1.55,2.49,2.4c0.7,0.76,1.23,0.87,1.98,0.04
		c0.77-0.85,1.7-1.57,2.5-2.39c1.21-1.25,2.72-1.77,4.47-1.77c1.62,0,3.24,0,4.87,0c2.77-0.01,3.73-0.9,3.74-3.5
		c0.01-2.08-0.02-4.16,0.01-6.25c0.02-1.5,0.04-2.95-1.01-4.27c-0.57-0.71-0.72-1.68-0.88-2.59c-0.28-1.57-0.2-3.16-0.15-4.74
		c0.04-1.15-0.3-1.62-1.61-1.61c-8.68,0.05-17.36,0.02-26.03,0.03c-2.42,0-3.39,0.94-3.41,3.29C6.37,31.54,6.39,34.25,6.39,36.96z
		 M105.38,25.54c-3.64,0-7.28,0-10.92,0c-3.63,0-3.64,0-3.63,3.4c0,2.5-0.28,4.91-1.97,6.98c-0.35,0.42-0.34,0.93-0.34,1.43
		c0,2.71-0.02,5.42,0.01,8.12c0.02,2,1.06,2.95,3.19,2.98c1.84,0.03,3.68,0,5.53,0.01c1.7,0.01,3.16,0.53,4.35,1.74
		c0.89,0.92,1.88,1.75,2.78,2.66c0.51,0.52,0.9,0.5,1.4-0.01c0.91-0.91,1.89-1.74,2.79-2.65c1.22-1.25,2.73-1.75,4.48-1.75
		c1.75,0,3.51,0.01,5.26-0.01c2.28-0.03,3.28-0.98,3.29-3.15c0.02-5.5,0.02-11,0-16.5c-0.01-2.32-1-3.26-3.45-3.27
		C113.89,25.54,109.64,25.55,105.38,25.54z"/>
	<path class="st0" d="M78.84,17.66c0.02,2.97-1.4,5.38-3.35,7.54c-2.75,3.05-6.18,5.27-9.87,7.16c-0.95,0.49-1.94,0.5-2.9,0.04
		c-4.14-2-7.96-4.4-10.81-7.98c-2.02-2.54-3.04-5.38-2.27-8.56c1.4-5.8,8.03-8.59,13.52-5.71c0.78,0.41,1.31,0.31,2.03-0.07
		C71.35,6.9,78.85,11.07,78.84,17.66z M58.6,13.05c-2.17,0.01-4.02,1.33-4.73,3.34c-0.7,1.99,0.04,3.7,1.19,5.28
		c2.12,2.92,5.13,4.85,8.35,6.52c0.41,0.21,0.82,0.31,1.25,0.07c3.59-1.99,6.96-4.2,9.11-7.72c0.65-1.06,1-2.24,0.8-3.47
		c-0.58-3.66-4.85-5.22-8.08-2.98c-1.92,1.32-2.81,1.33-4.72-0.01C60.82,13.42,59.8,13.01,58.6,13.05z"/>
	<path class="st0" d="M19.69,30.08c2.07,1.06,4.42,0.27,6.81,0.15c4.69-0.23,8.02,4.34,6.3,8.52c-1.67,4.05-5.24,6.32-9.17,8.14
		c-0.54,0.25-1.13,0.16-1.66-0.07c-3.33-1.5-6.34-3.41-8.28-6.49c-2.53-4-0.56-8.85,4.02-9.99C18.25,30.21,18.83,30.19,19.69,30.08z
		 M28.95,36.64c0.04-0.98-0.42-1.7-1.29-2.16c-0.93-0.49-1.88-0.39-2.71,0.22c-1.37,1-2.69,1.01-4.07,0.01
		c-1.03-0.74-2.12-0.73-3.13,0.07c-1.04,0.83-1.2,2.17-0.38,3.52c1.16,1.9,3.04,3.07,4.95,4.18c0.43,0.25,0.84,0.16,1.23-0.08
		c1.56-0.93,3.07-1.94,4.24-3.31C28.41,38.39,28.95,37.62,28.95,36.64z"/>
	<path class="st0" d="M102.08,30.2c1.7,0.76,3.9,0.24,6.18,0.05c5.17-0.43,8.66,4.52,6.47,9c-1.8,3.7-5.17,5.89-8.9,7.62
		c-0.59,0.27-1.22,0.19-1.79-0.07c-3.06-1.43-5.89-3.16-7.84-5.9c-2.45-3.45-1.8-7.46,1.5-9.62
		C98.86,30.53,100.11,30.09,102.08,30.2z M111.08,36.6c-0.03-2-2.16-3.07-3.89-1.94c-1.51,0.99-2.8,1.04-4.3-0.01
		c-1.38-0.97-3.29-0.32-3.74,1.15c-0.32,1.06-0.07,2.06,0.63,2.95c1.24,1.55,2.83,2.7,4.58,3.69c0.48,0.27,0.9,0.24,1.35-0.03
		c1.76-1.04,3.41-2.19,4.62-3.83C110.78,37.95,111.12,37.29,111.08,36.6z"/>
</g>
</svg>
