<?xml version="1.0" encoding="utf-8"?>
<!-- Generator: Adobe Illustrator 23.0.1, SVG Export Plug-In . SVG Version: 6.00 Build 0)  -->
<svg version="1.1" id="Layer_1" xmlns="http://www.w3.org/2000/svg" xmlns:xlink="http://www.w3.org/1999/xlink" x="0px" y="0px"
	 viewBox="0 0 128 128" style="enable-background:new 0 0 128 128;" xml:space="preserve">
<style type="text/css">
	.st0{clip-path:url(#SVGID_2_);}
	.st1{fill:#FFFFFF;}
</style>
<g>
	<defs>
		<rect id="SVGID_1_" width="128" height="128"/>
	</defs>
	<clipPath id="SVGID_2_">
		<use xlink:href="#SVGID_1_"  style="overflow:visible;"/>
	</clipPath>
	<g class="st0">
		<path class="st1" d="M61.59,37.83c-9.66-2.18-15.23-13.75-13.09-21.76C50.31,9.33,56.42,4.88,63.91,5
			c7.65,0.13,13.71,4.78,15.17,11.56c1.85,8.6-4.27,19.01-12.53,20.95c-0.13,0.03-0.25,0.08-0.51,0.17c0.56,0.38,1.1,0.26,1.59,0.27
			c2.96,0.06,5.9,0.36,8.83,0.73c8.7,1.1,15.17,7.67,16.8,16.59c0.85,4.61,1.12,9.33,1.68,13.99c0.49,3.99,1.02,7.96,1.55,11.94
			c0.2,1.53-0.25,2.63-1.37,3.12c-1.49,0.66-3.04-0.19-3.32-1.98c-0.52-3.33-0.97-6.68-1.37-10.03c-0.65-5.43-1-10.92-1.91-16.31
			c-1.23-7.36-5.99-11.71-13.32-12.62c-7.94-0.99-15.89-0.91-23.82,0.15c-5.82,0.77-9.5,4.2-11.69,9.49
			c-1.22,2.93-1.3,6.05-1.56,9.14c-0.57,6.73-1.47,13.42-2.26,20.13c-0.17,1.46-1.3,2.43-2.57,2.34c-1.35-0.09-2.32-1.2-2.17-2.8
			c0.3-3.32,0.75-6.62,1.1-9.93c0.55-5.22,1.03-10.44,1.62-15.66c1.11-9.92,8.57-17.02,18.49-17.74
			C55.43,38.29,58.49,37.9,61.59,37.83z M63.7,9.85c-5.9,0-10.45,3.63-10.77,8.9c-0.33,5.37,1.88,9.69,6.26,12.79
			c1.63,1.15,3.52,1.73,5.56,1.34c6.02-1.17,10.86-8.5,9.71-14.72C73.5,12.98,69.44,9.84,63.7,9.85z"/>
		<path class="st1" d="M47.24,119.54c0.54-3.22,0.94-6.87,1.82-10.4c0.74-2.94,0.29-5.01-2.15-6.98c-2.72-2.2-5.06-4.85-7.58-7.3
			c-0.79-0.77-1.35-1.64-1-2.8c0.35-1.15,1.22-1.61,2.35-1.77c4.18-0.6,8.36-1.28,12.55-1.82c1.35-0.18,2.17-0.69,2.77-1.98
			c1.77-3.81,3.7-7.54,5.54-11.31c0.51-1.05,1.14-1.85,2.44-1.85c1.3,0,1.93,0.8,2.44,1.85c1.89,3.85,3.83,7.68,5.67,11.55
			c0.49,1.03,1.14,1.52,2.24,1.67c4.01,0.54,8.01,1.13,12.02,1.7c0.54,0.08,1.09,0.16,1.61,0.31c1.68,0.5,2.33,2.29,1.29,3.7
			c-0.53,0.73-1.25,1.31-1.9,1.95c-2.76,2.72-5.51,5.45-8.29,8.15c-0.58,0.56-0.76,1.1-0.61,1.94c0.78,4.22,1.48,8.45,2.18,12.68
			c0.2,1.23,0.39,2.51-0.84,3.37c-1.15,0.8-2.25,0.35-3.33-0.22c-3.74-1.98-7.51-3.93-11.22-5.95c-0.92-0.5-1.63-0.46-2.53,0.02
			c-3.89,2.1-7.79,4.16-11.72,6.18C48.89,123.32,47.17,122.23,47.24,119.54z M45.93,94.4c0.25,0.32,0.37,0.51,0.52,0.65
			c2.38,2.33,4.76,4.65,7.15,6.97c0.89,0.86,1.23,1.82,0.99,3.08c-0.59,3.09-1.07,6.2-1.6,9.31c-0.06,0.36-0.28,0.8,0,1.05
			c0.4,0.36,0.74-0.13,1.07-0.3c2.71-1.4,5.43-2.79,8.11-4.26c1.24-0.68,2.37-0.72,3.61-0.03c1.95,1.08,3.93,2.11,5.93,3.11
			c1.08,0.54,2.07,1.29,3.33,1.65c0-0.4,0.04-0.71-0.01-1.01c-0.54-3.19-1.05-6.39-1.65-9.58c-0.22-1.16,0.03-2.06,0.85-2.86
			c1.7-1.65,3.4-3.31,5.09-4.97c0.89-0.87,1.78-1.75,2.85-2.8c-3.49-0.51-6.67-1.03-9.87-1.42c-1.77-0.22-3.03-0.83-3.79-2.6
			c-1.16-2.68-2.55-5.26-3.85-7.87c-0.16-0.32-0.23-0.8-0.62-0.83c-0.51-0.04-0.56,0.53-0.73,0.87c-1.27,2.53-2.62,5.02-3.73,7.63
			c-0.81,1.91-2.13,2.62-4.08,2.83C52.36,93.36,49.23,93.91,45.93,94.4z"/>
		<path class="st1" d="M6.8,119.49c0.45-2.67,0.94-5.78,1.53-8.87c0.21-1.11,0.01-1.9-0.82-2.68c-2.16-2.03-4.23-4.15-6.35-6.22
			c-0.79-0.77-1.39-1.61-1.05-2.78c0.36-1.22,1.29-1.64,2.48-1.8c2.88-0.39,5.75-0.92,8.64-1.26c1.24-0.15,1.94-0.66,2.46-1.79
			c1.22-2.65,2.57-5.25,3.86-7.87c0.49-1,1.16-1.81,2.34-1.83c1.24-0.02,1.96,0.76,2.47,1.83c1.27,2.63,2.63,5.22,3.85,7.87
			c0.52,1.13,1.24,1.62,2.46,1.77c2.98,0.36,5.94,0.87,8.91,1.3c1.1,0.16,1.87,0.69,2.2,1.76c0.33,1.05-0.09,1.87-0.82,2.59
			c-2.27,2.24-4.53,4.5-6.84,6.71c-0.55,0.53-0.77,0.99-0.63,1.78c0.56,3.01,1.01,6.03,1.55,9.04c0.22,1.2,0.24,2.32-0.81,3.12
			c-1.11,0.85-2.21,0.45-3.31-0.14c-2.61-1.4-5.25-2.74-7.85-4.16c-0.76-0.41-1.39-0.43-2.16-0.01c-2.81,1.52-5.62,3.01-8.48,4.43
			C8.41,123.3,6.73,122.17,6.8,119.49z M19.94,92.29c-1.07,2.16-2.05,3.96-2.86,5.82c-0.65,1.49-1.72,2.11-3.26,2.28
			c-2.01,0.22-4,0.57-5.77,0.83c1.41,1.55,2.77,3.15,4.25,4.62c1.05,1.04,1.41,2.16,1.11,3.59c-0.36,1.74-0.63,3.5-0.92,5.26
			c-0.05,0.29-0.22,0.7,0.14,0.85c0.19,0.08,0.51-0.09,0.75-0.21c0.69-0.35,1.36-0.74,2.05-1.09c4.67-2.41,4.66-2.39,9.25,0.1
			c0.88,0.48,1.71,1.12,2.87,1.27c-0.35-2.01-0.62-3.91-1.03-5.77c-0.39-1.74,0.02-3.07,1.38-4.26c1.45-1.28,2.73-2.74,4.25-4.29
			c-2.15-0.32-4.06-0.68-5.99-0.86c-1.68-0.16-2.76-0.9-3.44-2.46C21.93,96.16,21,94.43,19.94,92.29z"/>
		<path class="st1" d="M94.82,119.97c0.48-2.83,0.92-5.81,1.52-8.76c0.32-1.57,0.1-2.67-1.22-3.79c-2.15-1.82-4.07-3.93-6.08-5.91
			c-0.74-0.72-1.12-1.56-0.79-2.6c0.34-1.08,1.12-1.59,2.22-1.74c3.02-0.43,6.02-0.92,9.04-1.32c1.05-0.14,1.72-0.55,2.18-1.54
			c1.23-2.65,2.59-5.24,3.85-7.87c0.52-1.09,1.16-2.02,2.48-2.04c1.33-0.02,1.99,0.9,2.52,1.99c1.3,2.67,2.65,5.31,3.92,7.99
			c0.44,0.94,1.09,1.34,2.09,1.47c3.02,0.39,6.03,0.88,9.05,1.31c1.07,0.15,1.91,0.61,2.27,1.7c0.39,1.16-0.14,2.06-0.92,2.83
			c-2.14,2.11-4.28,4.23-6.48,6.29c-0.79,0.74-1.03,1.49-0.82,2.55c0.55,2.82,1.01,5.66,1.49,8.5c0.2,1.2,0.29,2.41-0.91,3.21
			c-1.11,0.74-2.17,0.36-3.22-0.2c-2.61-1.39-5.25-2.74-7.85-4.17c-0.77-0.42-1.38-0.44-2.15-0.02c-2.76,1.5-5.54,2.97-8.34,4.41
			C96.68,123.28,94.8,122.22,94.82,119.97z M100.43,115.84c2.2-1.15,4.17-2.16,6.12-3.2c1.06-0.57,2.05-0.55,3.11,0.03
			c1.59,0.88,3.22,1.7,4.84,2.53c0.3,0.15,0.63,0.57,0.96,0.26c0.28-0.25,0.09-0.69,0.02-1.05c-0.21-1.17-0.31-2.37-0.66-3.49
			c-0.81-2.6-0.09-4.57,2.04-6.23c1.22-0.95,2.2-2.22,3.37-3.42c-1.32-0.21-2.52-0.42-3.73-0.58c-5.34-0.75-4.3-0.21-6.65-4.76
			c-0.57-1.1-0.93-2.33-1.9-3.41c-0.96,1.94-1.91,3.7-2.72,5.53c-0.67,1.52-1.75,2.19-3.36,2.36c-1.95,0.2-3.89,0.56-6,0.88
			c1.72,1.75,3.24,3.32,4.78,4.86c0.8,0.8,1.14,1.69,0.93,2.84C101.17,111.16,100.84,113.35,100.43,115.84z"/>
		<path class="st1" d="M83.75,81.56c0-0.01,0.01,0.27,0,0.54c-0.07,1.41-0.97,2.41-2.23,2.49c-1.3,0.08-2.4-0.88-2.53-2.34
			c-0.22-2.45-0.38-4.91-0.56-7.37c-0.35-4.87-0.67-9.74-1.03-14.61c-0.12-1.6,0.71-2.89,2.05-3.08c1.4-0.2,2.56,0.7,2.73,2.38
			c0.29,2.81,0.46,5.64,0.66,8.46C83.15,72.44,83.44,76.86,83.75,81.56z"/>
		<path class="st1" d="M49.87,61.24C49.4,68.16,48.94,75.08,48.44,82c-0.12,1.68-1.2,2.65-2.63,2.54c-1.36-0.1-2.22-1.13-2.12-2.81
			c0.3-5.15,0.68-10.29,1.02-15.43c0.12-1.87,0.25-3.73,0.36-5.6c0.04-0.69,0.05-1.38,0.33-2.02c0.48-1.08,1.35-1.64,2.51-1.46
			c1.15,0.18,1.89,0.89,1.99,2.1c0.05,0.63,0.01,1.28,0.01,1.92C49.9,61.24,49.89,61.24,49.87,61.24z"/>
	</g>
</g>
</svg>
