<?xml version="1.0" encoding="utf-8"?>
<!-- Generator: Adobe Illustrator 23.0.1, SVG Export Plug-In . SVG Version: 6.00 Build 0)  -->
<svg version="1.1" id="Layer_1" xmlns="http://www.w3.org/2000/svg" xmlns:xlink="http://www.w3.org/1999/xlink" x="0px" y="0px"
	 viewBox="0 0 128 128" style="enable-background:new 0 0 128 128;" xml:space="preserve">
<style type="text/css">
	.st0{fill:#FFFFFF;}
</style>
<g>
	<path class="st0" d="M56.85,0c4.09,0.68,8.05,1.75,11.57,3.9c8.37,5.12,12.99,12.3,13.6,21.73c0.18,2.75,0.11,5.49,0.14,8.24
		c0.01,0.78,0.21,1.44,0.67,2.1c3.84,5.62,0.56,12.79-6.45,14c-0.99,0.17-1.3,0.53-1.47,1.38c-0.92,4.68-3.35,8.56-7.19,11.66
		c-0.67,0.54-0.96,1.12-0.92,1.94c0.06,1.25,0.07,2.5,0,3.75c-0.06,0.98,0.29,1.5,1.31,1.85c3.21,1.1,6.4,2.26,9.56,3.48
		c1.02,0.39,1.65,0.3,2.43-0.46c3.79-3.7,8.4-6.08,13.73-7.26c0.43-0.1,0.87-0.2,1.31-0.22c1.17-0.07,2.01,0.42,2.27,1.51
		c0.26,1.08-0.21,1.92-1.33,2.28c-1.17,0.38-2.4,0.61-3.58,0.98c-9.71,3.01-16.38,11.94-16.09,21.5
		c0.37,12.15,10.89,21.68,23.85,21.61c13.73-0.08,24.52-11.11,23.41-23.95c-0.81-9.43-8.1-17.45-17.89-19.69
		c-0.47-0.11-0.96-0.19-1.42-0.33c-1.24-0.37-1.9-1.32-1.67-2.35c0.25-1.11,1.29-1.75,2.64-1.52c3.27,0.56,6.35,1.63,9.15,3.29
		c8.62,5.08,13.27,12.48,13.52,21.97c0.31,11.96-7.9,21.91-19.39,25.39c-1.2,0.36-1.65,0.83-1.57,2c0.1,1.45-0.03,2.92,0.04,4.37
		c0.12,2.38-0.96,3.99-3.31,4.87c-33.5,0-67,0-100.5,0c-2.08-0.98-3.25-2.49-3.25-4.75c0.02-8.42-0.07-16.83,0.03-25.24
		c0.08-6.95,3.27-12.42,9.47-16.29c2.84-1.77,6.12-2.64,9.25-3.8c6.69-2.47,13.4-4.9,20.12-7.31c1.03-0.37,1.49-0.86,1.4-1.92
		c-0.09-1.12-0.07-2.25-0.01-3.37c0.05-0.92-0.31-1.55-1.07-2.13c-3.95-3-6.38-6.9-7.36-11.55c-0.25-1.16-0.74-1.51-1.9-1.75
		c-6.89-1.42-9.88-8.48-5.93-13.95c0.44-0.6,0.51-1.21,0.53-1.88c0.07-3.12-0.13-6.24,0.18-9.36c0.89-8.94,5.42-15.78,13.37-20.69
		C41.7,1.79,45.72,0.67,49.92,0C52.23,0,54.54,0,56.85,0z M4.39,109.81c0,4.33,0.02,8.66-0.02,13c-0.01,1.03,0.39,1.39,1.48,1.38
		c3.69-0.04,7.37-0.07,11.06,0.01c1.32,0.03,1.76-0.28,1.75-1.59c-0.07-6.54-0.03-13.08-0.03-19.62c0-0.46-0.04-0.93,0.05-1.37
		c0.21-1.04,0.96-1.63,2.05-1.62c1.09,0.01,1.83,0.6,2.03,1.65c0.08,0.45,0.05,0.91,0.05,1.37c0,6.62,0.02,13.25-0.02,19.87
		c-0.01,0.97,0.3,1.31,1.36,1.3c5.46-0.04,10.93-0.04,16.39,0c1.04,0.01,1.45-0.3,1.63-1.3c1.46-8.33,2.94-16.66,4.53-24.98
		c0.33-1.73,0.39-3.23-0.95-4.62c-0.51-0.54-0.81-0.68-1.52-0.29c-2.8,1.54-4.85,0.93-6.31-1.79c-2.17-4.06-4.35-8.11-6.47-12.19
		c-0.47-0.9-0.91-1.1-1.93-0.72c-4.82,1.81-9.68,3.53-14.52,5.31C8.36,86.03,4.44,91.36,4.4,98.06
		C4.37,101.97,4.39,105.89,4.39,109.81z M70.96,41.41c0-3.2-0.02-5.87,0.01-8.53c0.01-0.85-0.22-1.53-0.85-2.14
		c-1.47-1.45-2.93-2.91-4.33-4.41c-0.57-0.6-1.02-0.57-1.7-0.18c-8.32,4.75-17.33,7.17-27.1,6.92c-1.03-0.03-1.41,0.27-1.39,1.27
		c0.05,4.25-0.01,8.5,0.04,12.74c0.01,1.2,0.15,2.42,0.38,3.6c1.28,6.6,7.3,12.16,15.34,13.14c8.78,1.08,17.78-4.8,19.3-12.96
		C71.26,47.54,70.78,44.2,70.96,41.41z M38.56,28.98c3.12,0.07,5.8-0.23,8.46-0.75c5.45-1.05,10.5-3.01,15.24-5.74
		c2.71-1.56,4.11-1.38,6.33,0.8c1.69,1.65,3.35,3.33,4.99,5.03c0.83,0.86,1.59,1.73,1.78,2.99c0.15,1.01,1.29,0.63,1.98,0.84
		c0.52,0.15,0.47-0.36,0.47-0.68c0.02-3.33,0.12-6.66-0.69-9.94C74.56,11.21,64.12,3.16,51.71,4.01c-7.4,0.5-13.27,3.58-17.83,8.99
		c-4.66,5.53-5.33,11.99-4.96,18.69c0.02,0.3,0.07,0.68,0.49,0.58c0.86-0.19,1.89-0.05,2.37-1.09c0.72-1.57,2.14-2.15,3.86-2.2
		C36.75,28.96,37.86,28.98,38.56,28.98z M73.39,83.45c-1.36,2.57-2.71,5.14-4.09,7.7c-1.52,2.81-3.5,3.37-6.41,1.83
		c-0.34-0.18-0.74-0.56-1.05-0.15c-0.82,1.09-1.98,2.02-1.64,3.64c0.6,2.9,1.09,5.82,1.58,8.73c0.24,1.41-0.41,2.37-1.63,2.58
		c-1.26,0.22-2.28-0.53-2.56-1.96c-0.39-1.96-0.69-3.94-1.09-5.9c-0.77-3.72,0.17-3-3.98-3.11c-0.92-0.02-1.34,0.26-1.48,1.17
		c-0.44,2.76-0.98,5.5-1.48,8.24c-1,5.5-1.96,11-3,16.48c-0.22,1.15,0.08,1.5,1.37,1.47c3.77-0.08,7.55-0.03,11.32-0.03
		c1.61,0,1.62-0.02,1.35-1.46c-0.45-2.46-0.9-4.92-1.33-7.38c-0.21-1.22,0.34-2.25,1.38-2.54c1-0.28,1.85-0.02,2.45,0.8
		c0.33,0.45,0.41,1,0.5,1.54c0.45,2.59,0.92,5.17,1.38,7.75c0.14,0.81,0.38,1.33,1.49,1.32c5.51-0.06,11.01-0.04,16.52-0.01
		c1.02,0.01,1.3-0.37,1.29-1.26c-0.04-2.67-0.07-5.33,0.01-8c0.03-1.08-0.36-1.77-1.26-2.41c-2.44-1.71-4.52-3.75-6.18-6.15
		C71.93,99.25,70.96,91.62,73.39,83.45z M62.61,68.8c0-0.54,0-0.79,0-1.04c0-1.59,0-1.57-1.62-1.04c-2.79,0.92-5.65,1.32-8.62,1.15
		c-2.33-0.13-4.57-0.54-6.76-1.24c-0.3-0.1-0.88-0.35-0.86,0.13c0.04,1.58-0.68,3.27,0.54,4.7c2.49,2.93,5.04,5.82,7.52,8.75
		c0.61,0.72,0.99,0.72,1.61-0.02c2.2-2.62,4.4-5.23,6.71-7.76C62.18,71.26,62.96,70.11,62.61,68.8z M41.45,74.01
		c-0.12,0.03-0.29,0.06-0.46,0.12c-1.74,0.63-3.46,1.29-5.21,1.9c-0.71,0.25-0.86,0.53-0.5,1.19c2.05,3.79,4.07,7.59,6.07,11.4
		c0.38,0.72,0.75,0.93,1.51,0.4c2.22-1.53,4.46-3.02,6.72-4.49c0.65-0.42,0.79-0.78,0.25-1.4c-2.51-2.86-4.99-5.75-7.48-8.62
		C42.13,74.26,41.95,73.94,41.45,74.01z M65.05,89.44c0.52-0.05,0.57-0.44,0.72-0.72c2.03-3.8,4.04-7.6,6.08-11.39
		c0.35-0.66,0.34-1.03-0.49-1.31c-1.71-0.57-3.41-1.2-5.09-1.85c-0.64-0.25-1.05-0.13-1.49,0.38c-2.47,2.89-4.94,5.78-7.46,8.63
		c-0.57,0.65-0.38,0.92,0.26,1.34c2.27,1.46,4.49,2.98,6.74,4.48C64.56,89.16,64.82,89.31,65.05,89.44z M95.64,124.16
		c1.95,0,3.91-0.02,5.86,0.01c0.94,0.01,1.4-0.34,1.38-1.25c-0.03-1.25-0.04-2.5,0.01-3.75c0.04-0.88-0.34-1.19-1.26-1.15
		c-4.14,0.18-8.14-0.43-11.98-1.89c-0.79-0.3-1.03-0.07-1.02,0.68c0.02,2.08,0.04,4.16-0.01,6.25c-0.02,0.91,0.4,1.14,1.29,1.12
		C91.82,124.13,93.73,124.16,95.64,124.16z M31.42,41.04c0-1.37-0.01-2.74,0-4.1c0.01-0.65-0.21-0.9-0.96-0.69
		c-2.03,0.56-3.8,2.52-3.93,4.43c-0.15,2.22,1.18,4.2,3.36,5.01c1.21,0.46,1.51,0.28,1.53-0.92C31.44,43.53,31.43,42.29,31.42,41.04
		z M75.32,40.97c0,1.29,0.03,2.58-0.01,3.86c-0.03,0.98,0.35,1.29,1.36,0.93c2.01-0.7,3.48-2.64,3.52-4.72
		c0.04-2.02-1.56-4.15-3.58-4.83c-0.93-0.31-1.33-0.05-1.31,0.89C75.34,38.39,75.32,39.68,75.32,40.97z M53.58,92.76
		c1.87,0.24,3.51,0.08,4.4-1.84c0.27-0.59,0.39-0.96-0.23-1.36c-1.2-0.78-2.39-1.57-3.57-2.38c-0.44-0.3-0.79-0.25-1.2,0.03
		c-1.22,0.83-2.45,1.64-3.68,2.45c-0.3,0.2-0.53,0.39-0.38,0.81c0.46,1.39,1.74,2.28,3.33,2.29C52.69,92.76,53.13,92.76,53.58,92.76
		z"/>
	<path class="st0" d="M120.92,91.93c0.16,9.58-8.01,19.44-20.75,19.51c-12.4,0.07-21.07-9.42-21.01-19.69
		c0.06-10.72,9.5-19.57,20.94-19.55C111.65,72.22,120.94,81.03,120.92,91.93z M100.04,76.3C90.8,76.3,83.5,83.18,83.52,91.87
		c0.01,8.64,7.4,15.59,16.58,15.55c8.8-0.04,16.52-6.46,16.59-15.6C116.75,83.17,109.23,76.29,100.04,76.3z"/>
	<path class="st0" d="M98.85,98.05c-0.67,0.01-1.2-0.29-1.66-0.7c-1.47-1.32-2.96-2.63-4.36-4.02c-1.05-1.04-1.04-2.16-0.11-2.99
		c0.88-0.79,1.99-0.76,3.1,0.13c0.6,0.49,1.15,1.04,1.72,1.56c1.3,1.2,1.3,1.19,2.56,0.05c1.97-1.8,3.94-3.59,5.92-5.38
		c0.35-0.31,0.73-0.63,1.15-0.83c0.94-0.42,1.82-0.28,2.52,0.48c0.66,0.72,0.69,1.51,0.15,2.3c-0.19,0.28-0.43,0.53-0.68,0.76
		c-2.75,2.54-5.49,5.08-8.25,7.61C100.33,97.56,99.71,98.03,98.85,98.05z"/>
</g>
</svg>
